<?xml version="1.0" encoding="iso-8859-1"?>
<!-- Generator: Adobe Illustrator 21.0.0, SVG Export Plug-In . SVG Version: 6.00 Build 0)  -->
<svg version="1.1" xmlns="http://www.w3.org/2000/svg" xmlns:xlink="http://www.w3.org/1999/xlink" x="0px" y="0px"
	 width="595.28px" height="595.28px" viewBox="0 0 595.28 595.28" enable-background="new 0 0 595.28 595.28" xml:space="preserve">
<g id="Layer_1">
</g>
<g id="Layer_2">
	<g>
		<defs>
			<rect id="SVGID_15_" x="0" width="595.28" height="595.28"/>
		</defs>
		<clipPath id="SVGID_2_">
			<use xlink:href="#SVGID_15_"  overflow="visible"/>
		</clipPath>
		<g clip-path="url(#SVGID_2_)">
			<path fill="#D3B97D" d="M330.505,210.576c-1.359-11.808-1.193-17.903,13.092-24.364c17.106-7.738,36.824-12.248,54.667-18.196
				c9.844-3.286,19.74-6.594,28.91-11.454c7.783-4.125,15-9.348,23.125-12.752c13.069-5.476,27.616-5.916,41.781-6.277
				c3.025-0.077,6.2-0.121,8.882,1.28c2.922,1.526,4.751,4.497,6.438,7.329c29.677,49.822,60.428,104.111,54.906,161.839
				c-2.469,25.817-14.028,52.706-36.934,64.869c-7.332,3.893-15.427,6.079-23.443,8.235c-21.978,5.91-43.955,11.82-65.933,17.73
				c-26.339,7.083-58.259,12.845-77.706-6.278c-13.356-13.134-15.616-33.529-17.107-52.202
				c-3.154-39.488-6.303-78.977-9.461-118.465C331.378,217.577,330.883,213.856,330.505,210.576z"/>
			<path fill="#D3B97D" d="M259.497,136.224c15.908,3.742,31.986,7.505,48.328,7.529c-18.729,62.856-30.573,127.76-35.251,193.18
				c-0.544,7.613-1.172,15.733-5.819,21.787c-4.78,6.227-12.76,8.9-20.27,11.184c-23.399,7.117-47.06,13.679-71.285,17.052
				c-28.807,4.01-59.8,3.023-84.696-12.014c-24.958-15.074-40.531-42.784-45.798-71.461s-1.217-58.334,6.107-86.556
				c7.118-27.427,17.585-54.526,35.355-76.597c4.78-5.937,10.327-11.563,14.385-18.041c2.409-3.845,5.686-16.352,9.033-18.498
				c9.342-5.988,35.178,5.445,45.416,7.854C189.835,119.836,224.666,128.03,259.497,136.224z"/>
			<path fill="#ED9191" d="M119.844,261.919c18.88,3.245,38.187-1.766,56.226-8.215c19-6.793,37.41-15.233,54.958-25.194
				c4.748-2.695,10.006-5.607,15.355-4.515c5.562,1.135,9.485,6.504,10.608,12.067c1.123,5.564-0.012,11.315-1.308,16.841
				c-7.491,31.932-20.371,62.304-33.19,92.494c-3.801,8.951-8.267,18.628-17.009,22.888c-4.793,2.336-10.279,2.702-15.607,2.918
				c-23.346,0.946-46.778-0.213-69.917-3.457c-13.789-1.934-28.543-5.189-37.755-15.629c-7.413-8.401-9.871-19.978-11.538-31.057
				c-2.259-15.011-12.519-60.419-3.458-73.392C76.077,234.971,104.909,259.352,119.844,261.919z"/>
			<path fill="#7EB78C" d="M459.823,293.508c30.612,1.38,62.613-0.998,89.238-16.167c-4.51,16.104-4.469,33.083-6.744,49.651
				c-2.276,16.568-7.451,33.729-19.869,44.93c-8.913,8.04-20.664,12.175-32.355,14.893c-31.872,7.412-66.571,5.339-95.662-9.644
				c-19.344-9.963-66.418-50.112-52.382-76.812C355.886,274.038,436.2,292.443,459.823,293.508z"/>
			<g>
				<path fill="none" stroke="#231F20" stroke-width="11.0371" stroke-miterlimit="10" d="M515.637,112.99
					c18.906,56.795,35.393,114.43,49.398,172.687c6.291,26.169,11.617,55.679-2.336,78.55
					c-8.435,13.828-22.599,22.746-36.258,31.165c-24.269,14.961-49.054,30.141-76.664,36.711
					c-27.609,6.57-59.019,3.22-80.451-15.729c-10.466-9.253-17.909-21.566-23.958-34.283
					c-37.802-68.213-19.574-195.08-19.574-195.08S512.374,103.187,515.637,112.99z"/>
				<path fill="none" stroke="#231F20" stroke-width="11.0371" stroke-miterlimit="10" d="M340.654,301.862
					c6.204-2.689,43.291-19.473,58.492-17.683c15.201,1.79,29.634,7.701,44.643,10.741c27.689,5.607,79.234-7.594,104.048-21.336
					c8.284,21.176,3.561,75.332-10.049,93.411c-13.61,18.079-62.381,31.149-83.26,39.238c-24.573,9.52-59.211,6.278-77.528-12.968
					C354.561,369.689,334.449,304.55,340.654,301.862z"/>
				<path fill="none" stroke="#231F20" stroke-width="11.0371" stroke-miterlimit="10" d="M447.83,539.391
					c-5.508,27.345,125.306,5.674,112.484-23.38"/>
				<path fill="none" stroke="#231F20" stroke-width="10.6775" stroke-miterlimit="10" d="M479.896,421.486
					c0,0,5.353,104.107,24.79,128.639"/>
				<path fill="none" stroke="#231F20" stroke-width="11.0371" stroke-miterlimit="10" d="M326.197,140.469
					c-6.884,58.222-19.622,115.72-37.948,171.298c-7.175,21.761-15.847,44.191-32.927,59.125
					c-24.23,21.185-59.094,22.31-90.993,22.37c-19.62,0.037-40.029-0.102-57.669-8.872c-10.864-5.401-20.023-13.79-28.454-22.629
					c-16.23-17.014-30.583-36.559-37.86-59.119C21.336,243.7,108.41,101.947,108.41,101.947S269.02,121.582,326.197,140.469z"/>
				<path fill="none" stroke="#231F20" stroke-width="11.0371" stroke-miterlimit="10" d="M71.911,241.194
					c40.814,14.917,109.773,25.938,143.416-1.979c11.405-9.464,22.712-24.038,37.077-20.872c9.641,2.125,15.947,12.296,17.001,22.31
					c1.054,10.014-1.992,19.952-5.001,29.543c-10.467,33.369-27.406,92.752-61.178,98.952c-10.19,1.871-19.706,2.918-29.952,4.434
					c-40.476,5.988-77.25-14.795-91.094-31.332C64.384,320.994,68.011,268.874,71.911,241.194z"/>
				<path fill="none" stroke="#231F20" stroke-width="11.0371" stroke-miterlimit="10" d="M25.275,474.333
					c-12.049,22.188,136.96,105.238,156.64,94.92s7.803-36.207,7.803-36.207"/>
				<path fill="none" stroke="#231F20" stroke-width="11.0371" stroke-miterlimit="10" d="M132.616,393.265
					c-11.611,22.283-23.664,87.209-38.201,139.781"/>
				<path fill="none" stroke="#231F20" stroke-width="11.0371" stroke-miterlimit="10" d="M315.903,61.431
					c6.182-14.158,12.364-28.316,18.546-42.474"/>
				<path fill="none" stroke="#231F20" stroke-width="11.0371" stroke-miterlimit="10" d="M366.678,94.415
					c16.198-11.485,30.377-25.931,41.661-42.446"/>
				<path fill="none" stroke="#231F20" stroke-width="11.0371" stroke-miterlimit="10" d="M447.66,157.91
					c19.403-3.598,38.17-10.744,55.142-20.999"/>
				<path fill="none" stroke="#231F20" stroke-width="11.0371" stroke-miterlimit="10" d="M519.364,203.026
					c-3.58-16.609-7.159-33.217-10.739-49.826"/>
				<path fill="none" stroke="#231F20" stroke-width="11.0371" stroke-miterlimit="10" d="M263.148,65.106
					c-3.58-16.609-7.159-33.217-10.739-49.826"/>
			</g>
		</g>
	</g>
</g>
</svg>
